<?xml version="1.0" encoding="UTF-8" standalone="no"?><!DOCTYPE svg PUBLIC "-//W3C//DTD SVG 1.1//EN" "http://www.w3.org/Graphics/SVG/1.1/DTD/svg11.dtd"><svg width="100%" height="100%" viewBox="0 0 144 144" version="1.1" xmlns="http://www.w3.org/2000/svg" xmlns:xlink="http://www.w3.org/1999/xlink" xml:space="preserve" style="fill-rule:evenodd;clip-rule:evenodd;stroke-linejoin:round;stroke-miterlimit:1.41421;"><g><path d="M65,79.891c-0.489,-0.171 -0.98,-0.163 -1.479,0.026c-0.499,0.19 -0.871,0.511 -1.116,0.959c-0.581,1.069 -0.363,1.845 0.68,2.328c0.481,0.172 0.981,0.166 1.498,-0.025c0.517,-0.191 0.898,-0.508 1.134,-0.957c0.281,-0.447 0.345,-0.906 0.186,-1.373c-0.153,-0.467 -0.458,-0.785 -0.903,-0.958Z" style="fill:#7d7d7d;fill-rule:nonzero;"/><path d="M86.277,70.674c-2.76,-2.555 -6.359,-4.436 -10.792,-5.643c-4.44,-1.208 -9.177,-1.571 -14.215,-1.088c-7.698,0.797 -14.078,3.237 -19.135,7.328c-5.056,4.089 -7.343,8.657 -6.862,13.695c0.313,3.313 1.852,6.247 4.611,8.804c2.76,2.553 6.363,4.435 10.793,5.644c4.438,1.207 9.176,1.57 14.214,1.087c7.698,-0.795 14.078,-3.238 19.135,-7.328c5.056,-4.09 7.344,-8.655 6.861,-13.698c-0.312,-3.312 -1.846,-6.246 -4.61,-8.801Zm-11.546,17.089c-1.551,3.52 -4.279,6.108 -8.178,7.766c-3.902,1.658 -7.769,1.864 -11.6,0.622c-3.695,-1.173 -6.24,-3.357 -7.643,-6.552c-1.393,-3.192 -1.279,-6.429 0.341,-9.708c1.62,-3.21 4.238,-5.609 7.842,-7.197c3.609,-1.587 7.243,-1.918 10.902,-0.983c3.834,1.001 6.567,3.064 8.209,6.186c1.639,3.124 1.679,6.413 0.127,9.866Z" style="fill:#7d7d7d;fill-rule:nonzero;"/><path d="M0,0l0,143.327l143.326,0l0,-143.327l-143.326,0Zm104.921,86.908c-1.279,2.469 -3.158,4.833 -5.645,7.092c-2.487,2.265 -5.392,4.291 -8.723,6.085c-3.332,1.795 -7.235,3.227 -11.701,4.298c-4.474,1.072 -9.141,1.607 -14.011,1.607c-4.869,0 -9.616,-0.578 -14.236,-1.736c-4.63,-1.155 -8.777,-2.762 -12.454,-4.815c-3.676,-2.054 -6.64,-4.662 -8.886,-7.821c-2.242,-3.159 -3.359,-6.601 -3.359,-10.329c0,-3.971 1.198,-8.199 3.595,-12.687c2.4,-4.487 5.808,-8.939 10.23,-13.359c5.831,-5.835 11.727,-9.906 17.681,-12.22c5.954,-2.312 10.207,-2.19 12.763,0.363c2.241,2.21 2.587,5.816 1.034,10.822c-0.136,0.484 -0.153,0.828 -0.049,1.035c0.104,0.209 0.272,0.329 0.513,0.363c0.245,0.034 0.5,0.027 0.754,-0.024c0.263,-0.051 0.499,-0.114 0.699,-0.182l0.308,-0.102c4.802,-2.038 9.05,-3.056 12.744,-3.056c3.69,0 6.332,1.05 7.925,3.158c1.551,2.174 1.551,5.247 0,9.218c-0.074,0.447 -0.15,0.795 -0.236,1.032c-0.086,0.246 -0.01,0.459 0.236,0.652c0.235,0.188 0.444,0.32 0.616,0.388c0.173,0.068 0.468,0.172 0.881,0.307c1.97,0.624 3.749,1.434 5.333,2.434c1.588,1.004 2.968,2.41 4.143,4.223c1.171,1.809 1.761,3.822 1.761,6.033c0,2.344 -0.635,4.755 -1.916,7.221Zm-6.472,-35.444c-1.524,-1.656 -3.367,-2.262 -5.541,-1.813c-0.831,0.173 -1.608,0.037 -2.333,-0.415c-0.721,-0.447 -1.157,-1.087 -1.294,-1.915c-0.171,-0.828 -0.036,-1.596 0.418,-2.306c0.445,-0.706 1.085,-1.146 1.916,-1.321c2.07,-0.444 4.12,-0.351 6.163,0.286c2.033,0.64 3.776,1.77 5.229,3.395c1.448,1.62 2.387,3.492 2.823,5.615c0.426,2.125 0.318,4.153 -0.336,6.085c-0.281,0.794 -0.79,1.381 -1.534,1.761c-0.739,0.378 -1.506,0.449 -2.296,0.208c-0.798,-0.279 -1.389,-0.787 -1.766,-1.529c-0.381,-0.742 -0.45,-1.511 -0.208,-2.303c0.693,-2.176 0.275,-4.093 -1.24,-5.748Zm19.052,11.494c-0.308,0.933 -0.899,1.622 -1.761,2.072c-0.862,0.449 -1.761,0.517 -2.692,0.209c-0.93,-0.312 -1.62,-0.899 -2.069,-1.764c-0.449,-0.862 -0.536,-1.761 -0.259,-2.691c0.961,-2.829 1.139,-5.8 0.517,-8.907c-0.623,-3.106 -2.007,-5.834 -4.149,-8.183c-2.132,-2.38 -4.692,-4.03 -7.661,-4.942c-2.967,-0.917 -5.953,-1.062 -8.953,-0.44c-0.967,0.206 -1.865,0.042 -2.696,-0.496c-0.831,-0.533 -1.344,-1.281 -1.552,-2.25c-0.204,-0.965 -0.046,-1.854 0.49,-2.667c0.54,-0.809 1.289,-1.318 2.251,-1.529c4.243,-0.894 8.464,-0.694 12.64,0.599c4.175,1.294 7.765,3.615 10.765,6.965c3.005,3.313 4.948,7.153 5.829,11.521c0.88,4.365 0.644,8.534 -0.7,12.503Z" style="fill:#7d7d7d;fill-rule:nonzero;"/><path d="M59.091,82.325c-1.171,-0.482 -2.432,-0.498 -3.776,-0.05c-1.347,0.447 -2.387,1.243 -3.104,2.383c-0.763,1.173 -0.99,2.356 -0.681,3.546c0.314,1.192 1.053,2.061 2.233,2.612c1.172,0.554 2.46,0.597 3.854,0.13c1.402,-0.467 2.478,-1.284 3.236,-2.455c0.726,-1.175 0.916,-2.367 0.571,-3.577c-0.344,-1.206 -1.125,-2.07 -2.333,-2.59Z" style="fill:#7d7d7d;fill-rule:nonzero;"/></g></svg>